<svg width="720" height="720" viewBox="0 0 720 720" fill="none" xmlns="http://www.w3.org/2000/svg">
<path d="M446.808 240.73C451.021 241.496 453.702 245.326 451.787 249.922L358.335 494.276H379.017C382.081 494.276 384.379 496.574 384.379 499.638C384.379 503.085 382.081 505 379.017 505H279.437C276.373 505 274.075 503.085 274.075 499.638C274.075 496.574 276.373 494.276 279.437 494.276H295.906L388.592 252.22H279.82V287.456C279.82 290.903 277.522 292.818 274.458 292.818C271.394 292.818 269.096 290.903 269.096 287.456V246.475C269.096 243.411 271.777 240.73 274.841 240.73H446.808ZM308.162 494.276H346.079L438.765 252.22H400.848L308.162 494.276Z" fill="#FFFC00"/>
<path d="M389.31 474V453H392.97L402.21 468.84L411.42 453H415.11V474H411.42V459.36L402.87 474H401.52L392.97 459.36V474H389.31ZM418.491 474L429.141 452.7H432.801L443.481 474H439.581L437.841 470.58H424.101L422.361 474H418.491ZM430.971 457.05L425.691 467.43H436.251L430.971 457.05ZM446.878 474V453H450.538V463.44L461.728 453H466.558L456.388 462.69L468.448 474H463.468L453.988 465L450.538 468.27V474H446.878ZM475.382 470.85H490.442V474H471.722V453H490.262V456.15H475.382V461.91H488.222V465.06H475.382V470.85ZM501.517 474V453H505.177V474H501.517ZM508.309 453H531.739V456.09H521.869V474H518.179V456.09H508.309V453ZM542.21 474V453H545.87V461.91H559.52V453H563.21V474H559.52V465.06H545.87V474H542.21ZM566.587 474L577.237 452.7H580.897L591.577 474H587.677L585.937 470.58H572.197L570.457 474H566.587ZM579.067 457.05L573.787 467.43H584.347L579.067 457.05ZM594.974 474V453H606.224C610.754 453 613.034 456.36 613.034 459.72C613.034 463.08 610.754 466.44 606.224 466.44H598.634V474H594.974ZM598.634 456.18V463.26H605.924C608.234 463.26 609.404 461.49 609.404 459.72C609.404 457.95 608.234 456.18 605.924 456.18H598.634ZM617.035 474V453H628.285C632.815 453 635.095 456.36 635.095 459.72C635.095 463.08 632.815 466.44 628.285 466.44H620.695V474H617.035ZM620.695 456.18V463.26H627.985C630.295 463.26 631.465 461.49 631.465 459.72C631.465 457.95 630.295 456.18 627.985 456.18H620.695ZM642.755 470.85H657.815V474H639.095V453H657.635V456.15H642.755V461.91H655.595V465.06H642.755V470.85ZM661.595 474V453H665.255L679.955 469.26V453H683.645V474H679.955L665.255 457.74V474H661.595Z" fill="white"/>
<path d="M81.3794 413.628C82.4714 413.628 83.0954 414.252 83.0954 415.032V433.596C83.0954 434.22 82.4714 435 81.3794 435H32.2394C31.3034 435 30.5234 434.22 30.5234 433.596V415.032C30.5234 414.252 31.3034 413.628 32.2394 413.628H45.0314V369.48V331.572V310.2H68.8994V331.572V369.48V413.628H81.3794ZM188.944 310.2C190.036 310.2 190.66 310.98 190.66 311.604V433.596C190.66 434.22 190.036 435 188.944 435H168.352C168.04 435 167.104 434.844 166.948 434.532L109.54 352.32V405.048H85.6719V311.604C85.6719 310.98 86.4519 310.2 87.2319 310.2H107.98C108.292 310.2 109.228 310.356 109.384 310.668L166.948 392.88V311.604C166.948 310.98 167.728 310.2 168.82 310.2H188.944ZM253.221 365.736C266.325 371.82 273.501 383.988 273.501 398.652C273.501 422.052 254.781 435 234.813 435C234.813 435 234.813 435 234.657 435V412.536C234.813 412.536 234.813 412.536 234.813 412.536C243.081 412.536 250.413 406.92 250.413 398.652C250.413 389.448 241.833 383.832 234.813 383.52C233.721 383.52 225.297 383.52 216.249 379.308C203.301 373.38 195.969 362.304 195.969 347.796C195.969 324.396 214.845 310.2 234.813 310.2C256.185 310.2 272.721 324.552 273.033 345.768C273.189 346.236 272.409 347.016 271.317 347.016H251.817C250.881 347.016 250.101 346.236 250.101 345.768C249.789 336.876 242.925 332.664 234.813 332.664C226.233 332.664 219.213 337.812 219.213 347.796C219.213 356.844 226.857 361.524 234.813 361.524C235.593 361.524 244.329 361.524 253.221 365.736ZM319.437 310.2C324.429 310.2 361.557 310.98 361.557 347.64C361.557 384.3 322.401 384.768 319.437 384.768H300.873V433.596C300.873 434.22 300.405 435 299.313 435H279.033C278.253 435 277.473 434.22 277.473 433.596V361.68H300.873H319.437C322.557 361.68 337.845 361.368 337.845 347.64C337.845 333.912 322.245 333.132 319.437 333.132H300.873H277.473V311.604C277.473 310.98 278.253 310.2 279.033 310.2H319.437ZM416.688 413.628C417.78 413.628 418.404 414.252 418.404 415.032V433.596C418.404 434.22 417.78 435 416.688 435H367.548C366.612 435 365.832 434.22 365.832 433.596V415.032C365.832 414.252 366.612 413.628 367.548 413.628H380.34V369.48V331.572V310.2H404.208V331.572V369.48V413.628H416.688ZM506.156 432.972C506.624 434.064 506 435 504.752 435H482.444C481.976 435 481.04 434.532 480.884 434.064L458.108 384.612H444.692V433.596C444.692 434.22 443.912 435 442.976 435H422.54C421.76 435 420.98 434.22 420.98 433.596V361.68H444.692H462.944C468.092 361.68 481.352 361.056 481.352 347.328C481.352 333.6 466.688 332.82 462.944 332.82H444.692H420.98V311.604C420.98 310.98 421.76 310.2 422.54 310.2H462.944C469.964 310.2 505.064 310.512 505.064 347.328C505.064 366.36 494.612 376.344 482.132 380.868C489.932 398.496 498.356 415.656 506.156 432.972ZM602.751 310.2C603.531 310.2 604.311 310.98 604.311 311.604V393.348C604.311 419.712 584.031 435 557.511 435C531.771 435 510.711 419.088 510.711 393.348V332.82H534.267V393.192C535.671 405.516 545.967 412.068 557.511 412.068C569.211 412.068 580.755 405.984 580.755 393.348V311.604C580.755 310.98 581.379 310.2 582.471 310.2H602.751ZM666.225 365.736C679.329 371.82 686.505 383.988 686.505 398.652C686.505 422.052 667.785 435 647.817 435C647.817 435 647.817 435 647.661 435V412.536C647.817 412.536 647.817 412.536 647.817 412.536C656.085 412.536 663.417 406.92 663.417 398.652C663.417 389.448 654.837 383.832 647.817 383.52C646.725 383.52 638.301 383.52 629.253 379.308C616.305 373.38 608.973 362.304 608.973 347.796C608.973 324.396 627.849 310.2 647.817 310.2C669.189 310.2 685.725 324.552 686.037 345.768C686.193 346.236 685.413 347.016 684.321 347.016H664.821C663.885 347.016 663.105 346.236 663.105 345.768C662.793 336.876 655.929 332.664 647.817 332.664C639.237 332.664 632.217 337.812 632.217 347.796C632.217 356.844 639.861 361.524 647.817 361.524C648.597 361.524 657.333 361.524 666.225 365.736Z" fill="white"/>
</svg>
