<svg width="540" height="540" viewBox="0 0 540 540" fill="none" xmlns="http://www.w3.org/2000/svg">
<path fill-rule="evenodd" clip-rule="evenodd" d="M189.489 425.398L189.424 425.364L189.359 425.331C181.184 421.063 174.913 413.119 170.894 401.569C166.85 389.948 165.224 375.008 166.234 357.599C166.478 353.382 166.877 349.037 167.428 344.579C180.054 354.726 194.196 364.45 209.748 373.429C228.729 384.388 247.468 392.938 265.47 399.236C263.036 401.369 260.606 403.399 258.186 405.322C244.531 416.168 231.378 423.437 219.547 426.82C207.789 430.182 197.684 429.627 189.489 425.398ZM198.143 232.725C180.055 267.578 168.279 302.417 163.053 333.123C145.702 318.12 131.738 302.416 121.469 287.073C105.469 263.165 98.7188 240.594 101.447 222.977C104.64 211.582 109.044 200.342 114.711 189.424C125.194 169.224 139.065 151.927 155.268 137.866C151.059 156.642 158.846 177.869 174.783 198.64C181.986 208.027 190.928 217.433 201.368 226.638C200.281 228.648 199.206 230.678 198.143 232.725ZM204.333 221.248C194.591 212.564 186.261 203.742 179.543 194.987C161.281 171.186 155.44 148.65 164.073 130.714C210.379 95.5456 272.607 84.8447 329.374 105.383C291.568 109.521 241.587 154.736 204.333 221.248ZM206.024 230.646C205.165 232.248 204.313 233.863 203.469 235.489C184.908 271.253 173.175 306.834 168.398 337.633C181.46 348.392 196.282 358.726 212.748 368.233C232.534 379.656 251.996 388.387 270.551 394.637C293.893 372.842 317.296 341.793 336.606 304.586C337.656 302.564 338.683 300.543 339.689 298.523C316.097 293.154 290.836 283.762 265.833 270.434C243.013 258.27 222.781 244.737 206.024 230.646ZM342.395 292.981C319.009 287.804 293.752 278.518 268.655 265.139C245.684 252.895 225.498 239.309 208.959 225.271C230.677 186.21 256.75 154.723 281.89 134.753C295.544 123.907 308.697 116.638 320.528 113.255C332.317 109.885 342.445 110.452 350.651 114.711C358.858 118.97 365.151 126.926 369.181 138.506C373.225 150.127 374.851 165.068 373.841 182.476C372.001 214.2 361.461 253.166 342.395 292.981ZM345.742 299.82C344.505 302.329 343.235 304.84 341.932 307.35C323.032 343.766 300.18 374.537 277.057 396.739C295.012 402.291 312.031 405.487 327.566 406.525C360.944 408.756 386.939 401.016 401.028 385.989L401.104 386.06C410.414 375.527 418.595 363.694 425.364 350.651C436.585 329.031 442.853 306.15 444.579 283.304C431.029 298.045 407.434 304.557 379.557 303.813C368.927 303.529 357.572 302.195 345.742 299.82ZM445.056 272.652C434.877 289.894 411.298 298.658 379.717 297.815C369.901 297.553 359.404 296.36 348.443 294.237C380.813 225.998 388.775 159.804 370.527 126.741C418.906 160.577 445.86 215.88 445.056 272.652ZM451.035 273.968C452.435 207.209 416.689 142.224 353.415 109.385C288.972 75.9396 213.699 85.0372 159.68 126.518L159.519 126.432C159.456 126.55 159.394 126.668 159.332 126.786C139.127 142.379 121.916 162.515 109.385 186.66C105.074 194.966 101.47 203.453 98.5506 212.051L98.2026 211.916C96.9924 215.04 96.1168 218.318 95.5647 221.73C73.1372 302.415 109.321 390.508 186.587 430.652L186.66 430.69L186.732 430.727C275.445 476.719 384.654 442.117 430.69 353.415C443.848 328.061 450.422 301.03 451.029 274.277C451.072 274.197 451.116 274.116 451.159 274.034L451.035 273.968ZM210.702 434.693C229.198 432.668 250.609 420.811 272.017 401.438C291.582 407.754 310.183 411.376 327.166 412.511C347.248 413.854 365.25 411.721 379.9 406.311C333.228 443.897 269.078 455.812 210.702 434.693ZM116.483 290.411C106.395 275.337 99.5911 260.335 96.5924 246.405C87.897 310.238 115.207 375.329 169.548 413.334C160.145 396.297 157.702 370.464 161.97 340.087C142.932 324.041 127.635 307.074 116.483 290.411Z" fill="url(#paint0_linear_113_63)" fill-opacity="0.43"/>
<g filter="url(#filter0_d_113_63)">
<path d="M149.038 301.038H144.538H140.038H135.538V296.538V292.038H140.038V287.538V283.038V278.538V274.038V269.538V265.038V260.538V256.038H135.538V251.538V247.038H140.038H144.538H149.038H153.538V251.538V256.038H149.038V260.538V265.038V269.538V274.038V278.538V283.038V287.538V292.038H153.538V296.538V301.038H149.038ZM194.038 301.038H189.538V296.538V292.038V287.538V283.038V278.538V274.038V269.538H194.038H198.538V274.038V278.538V283.038V287.538V292.038V296.538V301.038H194.038ZM162.538 301.038H158.038V296.538V292.038V287.538V283.038V278.538V274.038V269.538V265.038V260.538H162.538H167.038H171.538H176.038H180.538H185.038H189.538V265.038V269.538H185.038H180.538H176.038H171.538H167.038V274.038V278.538V283.038V287.538V292.038V296.538V301.038H162.538ZM221.038 301.038H216.538H212.038H207.538H203.038V296.538V292.038H207.538H212.038H216.538H221.038H225.538V296.538V301.038H221.038ZM225.538 292.038V287.538V283.038H230.038H234.538V287.538V292.038H230.038H225.538ZM225.538 283.038H221.038H216.538H212.038V278.538V274.038H216.538H221.038H225.538V278.538V283.038ZM212.038 274.038H207.538H203.038V269.538V265.038H207.538H212.038V269.538V274.038ZM230.038 265.038H225.538H221.038H216.538H212.038V260.538V256.038H216.538H221.038H225.538H230.038H234.538V260.538V265.038H230.038ZM243.538 314.538H239.038V310.038V305.538V301.038V296.538V292.038V287.538V283.038V278.538V274.038V269.538V265.038V260.538H243.538H248.038V265.038V269.538H252.538H257.038V274.038V278.538H252.538H248.038V283.038V287.538H252.538H257.038H261.538H266.038H270.538V292.038V296.538H266.038H261.538H257.038H252.538H248.038V301.038V305.538V310.038V314.538H243.538ZM270.538 287.538V283.038V278.538V274.038V269.538H275.038H279.538V274.038V278.538V283.038V287.538H275.038H270.538ZM270.538 269.538H266.038H261.538H257.038V265.038V260.538H261.538H266.038H270.538V265.038V269.538ZM288.538 301.038H284.038V296.538V292.038V287.538V283.038V278.538V274.038V269.538V265.038V260.538H288.538H293.038V265.038V269.538V274.038V278.538V283.038V287.538V292.038V296.538V301.038H288.538ZM288.538 256.038H284.038V251.538V247.038H288.538H293.038V251.538V256.038H288.538ZM324.538 274.038V269.538H320.038H315.538H311.038V274.038H306.538V278.538V283.038V287.538V292.038V296.538V301.038H302.038H297.538V296.538V292.038V287.538V283.038V278.538V274.038V269.538V265.038V260.538H302.038H306.538V265.038H311.038V260.538H315.538H320.038H324.538V265.038H329.038V269.538V274.038H324.538ZM365.038 301.038H360.538H356.038H351.538H347.038H342.538V296.538V292.038H347.038H351.538H356.038H360.538V287.538V283.038V278.538V274.038V269.538V265.038V260.538H365.038H369.538V265.038V269.538V274.038V278.538V283.038V287.538V292.038V296.538V301.038H365.038ZM342.538 292.038H338.038H333.538V287.538V283.038V278.538V274.038V269.538V265.038V260.538H338.038H342.538V265.038V269.538V274.038V278.538V283.038V287.538V292.038ZM392.038 301.038H387.538H383.038H378.538H374.038V296.538V292.038H378.538H383.038H387.538H392.038H396.538V296.538V301.038H392.038ZM396.538 292.038V287.538V283.038H401.038H405.538V287.538V292.038H401.038H396.538ZM396.538 283.038H392.038H387.538H383.038V278.538V274.038H387.538H392.038H396.538V278.538V283.038ZM383.038 274.038H378.538H374.038V269.538V265.038H378.538H383.038V269.538V274.038ZM401.038 265.038H396.538H392.038H387.538H383.038V260.538V256.038H387.538H392.038H396.538H401.038H405.538V260.538V265.038H401.038Z" fill="white"/>
</g>
<defs>
<filter id="filter0_d_113_63" x="118.538" y="230.038" width="304" height="101.5" filterUnits="userSpaceOnUse" color-interpolation-filters="sRGB">
<feFlood flood-opacity="0" result="BackgroundImageFix"/>
<feColorMatrix in="SourceAlpha" type="matrix" values="0 0 0 0 0 0 0 0 0 0 0 0 0 0 0 0 0 0 127 0" result="hardAlpha"/>
<feOffset/>
<feGaussianBlur stdDeviation="8.5"/>
<feComposite in2="hardAlpha" operator="out"/>
<feColorMatrix type="matrix" values="0 0 0 0 1 0 0 0 0 1 0 0 0 0 1 0 0 0 1 0"/>
<feBlend mode="normal" in2="BackgroundImageFix" result="effect1_dropShadow_113_63"/>
<feBlend mode="normal" in="SourceGraphic" in2="effect1_dropShadow_113_63" result="shape"/>
</filter>
<linearGradient id="paint0_linear_113_63" x1="529.038" y1="324.038" x2="68.0376" y2="174.038" gradientUnits="userSpaceOnUse">
<stop stop-color="#E813B9"/>
<stop offset="0.528388" stop-color="#416BFF"/>
<stop offset="0.986321" stop-color="#F5CC38"/>
</linearGradient>
</defs>
</svg>
