<svg width="1080" height="176" viewBox="0 0 1080 176" fill="none" xmlns="http://www.w3.org/2000/svg">
<path d="M150.928 13.3848C164.216 39.3336 192.276 106.035 171.486 171.734C235.9 108.672 196.018 45.5513 191.408 38.9486C179.181 28.5729 165.566 19.9683 150.928 13.3848Z" fill="#00AAFF"/>
<path d="M136.908 8.34159H137.352C65.243 -16.1442 0 21.0658 0 21.1235C0.597852 25.3777 1.36927 29.4972 2.25641 33.5589C21.8505 32.3654 41.5219 34.0209 60.6337 38.4484C60.6337 38.4484 65.5323 40.4119 60.6337 41.4321C60.6337 41.4321 29.0826 46.7644 7.40566 52.5393C9.29566 58.0448 11.5135 63.4541 14.0206 68.6901C42.2547 65.6293 70.8359 68.4783 97.913 77.0638C97.913 77.0638 102.812 79.3738 97.913 80.0091C97.913 80.0091 42.2354 84.8986 26.9805 91.0201C57.1044 134.602 103.757 157.22 133.726 167.904C146.725 171.619 154.825 173.737 159.82 174.814V174.083C184.351 105.534 150.003 33.5012 138.721 13.0771L136.908 8.32234V8.34159Z" fill="#0046B4"/>
<path d="M1069.26 23.1761C1068.91 23.4071 1068.51 23.5226 1068.09 23.5226H1067.49V21.1164C1067.49 20.3849 1067.74 20.2309 1068.37 20.2309C1069.24 20.1539 1069.99 20.7891 1070.09 21.6361C1070.09 21.7131 1070.09 21.7709 1070.09 21.8479C1070.09 22.4061 1069.76 22.9259 1069.26 23.1761ZM1072.89 27.2378C1071.96 26.2946 1071.19 25.2166 1070.57 24.0616C1071.65 23.7536 1072.41 22.7719 1072.45 21.6554C1072.45 19.4609 1070.57 19.0566 1068.95 19.0566H1064.05V20.2309C1065.19 20.2309 1065.33 20.2309 1065.33 21.5976V26.4871C1065.33 27.3726 1064.85 27.8282 1063.9 27.8538V29.0281H1068.8V27.8538C1067.56 27.8538 1067.43 27.8538 1067.43 26.4871V25.0241C1067.82 25.0241 1068.13 25.0241 1068.32 25.4669C1068.74 26.2176 1069.22 26.9299 1069.75 27.6228C1070.59 28.7201 1071.96 29.2783 1073.33 29.0858L1073.68 28.2003C1073.29 27.9886 1072.95 27.6998 1072.66 27.3726" fill="#0046B4"/>
<path d="M1068.46 31.6967C1064.27 31.3695 1061.15 27.6928 1061.5 23.5155C1061.81 19.8003 1064.76 16.8551 1068.46 16.5663C1072.49 16.5856 1075.75 19.8773 1075.73 23.9005C1075.73 23.9968 1075.73 24.093 1075.73 24.2085C1075.88 28.174 1072.8 31.5235 1068.83 31.6967C1068.71 31.6967 1068.59 31.6967 1068.48 31.6967M1068.48 14.8531C1063.35 14.8338 1059.18 18.9533 1059.17 24.0545C1059.17 24.1123 1059.17 24.1508 1059.17 24.2085C1059.11 29.2327 1063.16 33.3522 1068.19 33.41C1068.29 33.41 1068.38 33.41 1068.48 33.41C1073.61 33.7757 1078.08 29.9257 1078.45 24.8053C1078.82 19.6848 1074.96 15.2188 1069.83 14.8531C1069.39 14.8146 1068.92 14.8146 1068.48 14.8531Z" fill="#0046B4"/>
<path d="M790.191 61.8205C798.081 61.8013 804.446 55.391 804.424 47.518C804.407 39.6448 797.982 33.2923 790.097 33.3116C782.229 33.3308 775.864 39.7025 775.864 47.5565C775.864 55.4103 782.245 61.8013 790.136 61.8013C790.136 61.8013 790.174 61.8013 790.191 61.8013" fill="#0046B4"/>
<path d="M299.368 157.241C276.515 157.241 265.02 126.383 265.02 90.3089C265.02 56.6214 276.302 31.5582 294.797 31.5582H295.048C315.51 31.5582 327.467 57.1604 327.467 98.8944C327.467 137.336 315.742 157.356 299.156 157.356M298.365 21.9141C254.22 21.9141 233.064 59.2779 233.064 95.3524C233.064 136.682 258.077 167.482 296.398 167.482C332.5 167.482 360.175 139.723 360.175 94.0434C360.175 48.3633 333.638 22.1065 298.365 22.1065" fill="#0046B4"/>
<path d="M461.245 141.383V98.1482C461.245 78.1282 451.872 64.9034 434.515 64.9034C428.498 65.0189 422.674 67.0787 417.929 70.7747C413.359 73.8162 409.695 76.8384 405.51 79.6874V64.7109C393.205 68.6187 380.534 71.3137 367.69 72.7382V79.6874C377.507 81.4007 378.336 82.0937 378.336 94.8757V140.96C378.336 154.223 377.198 154.666 364.836 156.148V164.233H414.67V156.148C406.628 155.07 405.49 154.242 405.49 141.46V88.3884C409.502 84.4422 414.902 82.1899 420.552 82.1129C427.92 82.1129 434.052 87.0024 434.052 102.094V140.979C434.052 154.242 432.972 155.089 424.236 156.167V164.252H472.758V156.167C462.305 154.897 461.225 154.261 461.225 141.479" fill="#0046B4"/>
<path d="M528.45 101.179L504.266 101.872C505.404 85.9526 513.195 74.2486 520.852 74.2486C528.701 74.2486 533.021 85.7601 533.021 96.1936C533.021 100.101 531.999 101.083 528.122 101.083M558.382 100.448C558.553 81.3519 543.512 65.5669 524.381 64.7969C512.057 65.3936 500.524 70.9569 492.405 80.2161C482.512 91.0154 477.054 105.145 477.151 119.775C477.151 144.934 492.849 166.687 520.717 166.687C535.991 165.763 549.819 157.389 557.704 144.319L553.136 138.043C547.215 143.991 539.115 147.263 530.726 147.148C516.011 147.148 503.938 134.52 503.302 112.575C523.262 111.748 549.221 109.726 552.365 109.149C557.804 108.263 558.691 105.434 558.691 100.429" fill="#0046B4"/>
<path d="M658.414 123.987C658.414 102.889 643.702 90.7418 622.256 79.4228C605.285 70.51 597.477 63.5608 597.477 51.6646C596.821 41.0387 604.938 31.8757 615.584 31.2212C615.832 31.2212 616.102 31.202 616.355 31.1827C632.88 31.1827 638.765 46.1591 643.14 59.6723L652.072 58.1521C650.105 44.4459 648.579 35.3407 647.945 27.0633C638.859 23.7523 629.293 21.9235 619.634 21.6348C588.931 21.6348 572.191 40.0954 572.191 62.9063C572.191 83.5615 588.275 95.9008 608.294 106.97C623.739 115.44 632.032 124.16 632.032 136.095C632.032 149.126 624.185 157.596 612.421 157.596C592.402 157.596 581.949 135.229 578.076 122.196L569.144 124.603C570.416 136.461 572.521 148.202 575.431 159.752C579.541 161.562 583.784 163.083 588.082 164.353C594.738 166.24 601.621 167.183 608.547 167.144C639.206 167.144 658.822 148.491 658.822 124.16" fill="#0046B4"/>
<path d="M711.081 156.161C703.042 154.833 701.962 153.966 701.962 141.473V87.6123C705.664 83.6275 710.927 81.433 716.387 81.6448C724.234 81.6448 730.559 87.0733 730.559 102.704V141.589C730.559 153.774 729.672 154.852 720.746 156.276V164.304H823.77V156.276C811.791 154.948 810.672 153.639 810.672 139.721V64.8973C797.944 68.6703 784.907 71.346 771.715 72.9245V80.124C782.614 82.0875 783.479 82.5303 783.479 95.9475V139.433C783.479 153.774 781.611 154.659 770.095 155.988C759.604 154.467 758.022 154.024 758.022 141.011V100.279C758.022 77.6985 748.209 65.0705 729.672 65.0705C718.834 65.0705 709.02 72.0198 702.309 78.7765V14.3086C689.481 17.6003 676.482 20.122 663.352 21.893V29.2465C674.438 30.5747 675.077 30.5747 675.077 43.1449V141.069C675.077 154.101 673.997 154.929 661.825 156.045V164.073H711.428L711.081 156.142V156.161Z" fill="#0046B4"/>
<path d="M871.659 74.2486C879.505 74.2486 883.825 85.7601 883.825 96.1936C883.825 100.101 882.745 101.083 878.927 101.083L854.742 101.776C855.822 85.8564 863.674 74.1524 871.273 74.1524M871.273 166.706C886.564 165.801 900.411 157.427 908.302 144.338L903.69 138.062C897.772 144.011 889.672 147.283 881.28 147.167C866.567 147.167 854.55 134.54 853.855 112.595C873.912 111.767 899.816 109.746 902.918 109.168C908.357 108.283 909.244 105.453 909.244 100.448C909.244 82.4299 894.818 64.7969 875.246 64.7969C862.92 65.3936 851.348 70.9569 843.21 80.2161C833.357 91.0346 827.919 105.164 827.996 119.775C827.996 144.934 843.634 166.687 871.504 166.687" fill="#0046B4"/>
<path d="M965.057 156.161C952.891 154.833 951.772 153.966 951.772 140.241V14.3086C938.906 17.8313 925.775 20.353 912.523 21.893V28.8422C924.287 30.363 924.733 30.748 924.733 43.5299V140.183C924.733 153.254 923.846 154.582 911.636 156.103V164.13H965.057V156.142V156.161Z" fill="#0046B4"/>
<path d="M1018.59 149.847C1009.47 149.847 995.523 138.971 995.523 113.118C995.523 79.8738 1010.74 74.8688 1015.14 74.8688C1020.58 74.8688 1025.53 78.584 1028.58 86.1878V146.805C1025.69 149.058 1022.04 150.136 1018.38 149.847M1069.54 158.567V150.732L1063.47 150.039C1056.89 149.404 1055.81 148.134 1055.81 137.257V14.3086C1042.66 18.0238 1029.2 20.5648 1015.58 21.893V29.285C1028 30.363 1028.83 31.441 1028.83 43.3952V65.9753C1000.37 59.9885 972.419 78.1605 966.402 106.592C965.537 110.673 965.168 114.831 965.305 119.008C965.305 151.368 988.41 166.806 1006.21 166.806C1010.41 166.845 1014.5 165.382 1017.74 162.687L1028.83 155.295V166.806C1042.27 163.052 1055.95 160.319 1069.8 158.586" fill="#0046B4"/>
</svg>
