<svg width="200" height="54" viewBox="0 0 200 54" fill="none" xmlns="http://www.w3.org/2000/svg">
<g clip-path="url(#clip0_670_202)">
<path d="M27.3906 2.43359C29.8021 7.15156 34.8946 19.279 31.1216 31.2244C42.8115 19.7585 35.5736 8.28205 34.7371 7.08156C32.5181 5.19507 30.0471 3.63059 27.3906 2.43359Z" fill="#454D50"/>
<path d="M24.8463 1.51665H24.9268C11.8404 -2.93532 0 3.83014 0 3.84064C0.108499 4.61413 0.248498 5.36313 0.409497 6.10162C3.96547 5.88462 7.53545 6.18562 11.0039 6.99062C11.0039 6.99062 11.8929 7.34761 11.0039 7.53311C11.0039 7.53311 5.27796 8.50261 1.34399 9.5526C1.68699 10.5536 2.08949 11.5371 2.54448 12.4891C7.66845 11.9326 12.8554 12.4506 17.7694 14.0116C17.7694 14.0116 18.6584 14.4316 17.7694 14.5471C17.7694 14.5471 7.66495 15.4361 4.89647 16.5491C10.3634 24.473 18.8299 28.5855 24.2688 30.528C26.6278 31.2035 28.0978 31.5885 29.0043 31.7844V31.6514C33.4563 19.188 27.2228 6.09112 25.1753 2.37765L24.8463 1.51315V1.51665Z" fill="#6F6F6F"/>
<path d="M194.051 4.21384C193.988 4.25584 193.915 4.27684 193.838 4.27684H193.729V3.83934C193.729 3.70634 193.775 3.67834 193.89 3.67834C194.048 3.66434 194.184 3.77984 194.202 3.93384C194.202 3.94784 194.202 3.95834 194.202 3.97234C194.202 4.07384 194.142 4.16834 194.051 4.21384ZM194.709 4.95233C194.541 4.78083 194.401 4.58484 194.289 4.37484C194.485 4.31884 194.622 4.14034 194.629 3.93734C194.629 3.53834 194.289 3.46484 193.995 3.46484H193.106V3.67834C193.313 3.67834 193.337 3.67834 193.337 3.92684V4.81583C193.337 4.97683 193.251 5.05967 193.078 5.06433V5.27783H193.967V5.06433C193.743 5.06433 193.719 5.06433 193.719 4.81583V4.54984C193.789 4.54984 193.845 4.54984 193.88 4.63034C193.957 4.76684 194.044 4.89634 194.139 5.02233C194.293 5.22183 194.541 5.32333 194.79 5.28833L194.853 5.12733C194.783 5.08883 194.72 5.03633 194.667 4.97683" fill="#0082B8"/>
<path d="M193.906 5.76304C193.146 5.70354 192.579 5.03505 192.642 4.27555C192.698 3.60006 193.234 3.06456 193.906 3.01206C194.637 3.01556 195.229 3.61406 195.225 4.34555C195.225 4.36305 195.225 4.38055 195.225 4.40155C195.253 5.12254 194.693 5.73154 193.972 5.76304C193.951 5.76304 193.93 5.76304 193.909 5.76304M193.909 2.70056C192.978 2.69706 192.222 3.44606 192.219 4.37355C192.219 4.38405 192.219 4.39105 192.219 4.40155C192.208 5.31504 192.943 6.06404 193.857 6.07454C193.874 6.07454 193.892 6.07454 193.909 6.07454C194.84 6.14104 195.652 5.44104 195.719 4.51005C195.785 3.57906 195.085 2.76706 194.154 2.70056C194.074 2.69356 193.99 2.69356 193.909 2.70056Z" fill="#0082B8"/>
<path d="M143.405 11.2401C144.837 11.2366 145.992 10.0711 145.988 8.63963C145.985 7.20814 144.819 6.05315 143.388 6.05665C141.96 6.06015 140.805 7.21864 140.805 8.64663C140.805 10.0746 141.963 11.2366 143.395 11.2366C143.395 11.2366 143.402 11.2366 143.405 11.2366" fill="#0082B8"/>
<path d="M54.3298 28.5892C50.1823 28.5892 48.0963 22.9787 48.0963 16.4198C48.0963 10.2948 50.1438 5.73786 53.5003 5.73786H53.5458C57.2593 5.73786 59.4293 10.3928 59.4293 17.9808C59.4293 24.9702 57.3013 28.6102 54.2913 28.6102M54.1478 3.98438C46.1363 3.98438 42.2969 10.7778 42.2969 17.3368C42.2969 24.8512 46.8363 30.4512 53.7908 30.4512C60.3427 30.4512 65.3652 25.4042 65.3652 17.0988C65.3652 8.79334 60.5492 4.01937 54.1478 4.01937" fill="#0082B8"/>
<path d="M83.7073 25.706V17.8451C83.7073 14.2051 82.0063 11.8006 78.8563 11.8006C77.7644 11.8216 76.7074 12.1961 75.8464 12.8681C75.0169 13.4211 74.3519 13.9706 73.5924 14.4886V11.7656C71.3594 12.4761 69.0599 12.9661 66.7289 13.2251V14.4886C68.5104 14.8001 68.6609 14.9261 68.6609 17.2501V25.629C68.6609 28.0405 68.4544 28.121 66.2109 28.3905V29.8605H75.2549V28.3905C73.7954 28.1945 73.5889 28.044 73.5889 25.72V16.0706C74.3169 15.3531 75.2969 14.9436 76.3224 14.9296C77.6594 14.9296 78.7724 15.8186 78.7724 18.5626V25.6325C78.7724 28.044 78.5763 28.198 76.9909 28.394V29.864H85.7968V28.394C83.8998 28.163 83.7038 28.0475 83.7038 25.7235" fill="#0082B8"/>
<path d="M95.9039 18.3962L91.5149 18.5222C91.7214 15.6277 93.1354 13.4997 94.5249 13.4997C95.9494 13.4997 96.7334 15.5927 96.7334 17.4897C96.7334 18.2002 96.5479 18.3787 95.8444 18.3787M101.336 18.2633C101.367 14.7913 98.6374 11.9213 95.1654 11.7812C92.9289 11.8897 90.8359 12.9012 89.3624 14.5847C87.567 16.5482 86.5765 19.1173 86.594 21.7773C86.594 26.3517 89.443 30.3067 94.5004 30.3067C97.2724 30.1387 99.7819 28.6161 101.213 26.2397L100.384 25.0987C99.3094 26.1802 97.8394 26.7752 96.3169 26.7542C93.6464 26.7542 91.4554 24.4583 91.3399 20.4683C94.9624 20.3178 99.6734 19.9502 100.244 19.8452C101.231 19.6842 101.392 19.1698 101.392 18.2598" fill="#0082B8"/>
<path d="M119.49 22.543C119.49 18.707 116.82 16.4985 112.928 14.4405C109.848 12.82 108.431 11.5565 108.431 9.39356C108.312 7.46157 109.785 5.79558 111.717 5.67658C111.762 5.67658 111.811 5.67308 111.857 5.66958C114.856 5.66958 115.924 8.39256 116.718 10.8495L118.339 10.5731C117.982 8.08107 117.705 6.42558 117.59 4.92059C115.941 4.31859 114.205 3.98609 112.452 3.93359C106.88 3.93359 103.842 7.29007 103.842 11.4375C103.842 15.193 106.761 17.4365 110.394 19.449C113.197 20.989 114.702 22.5745 114.702 24.7445C114.702 27.1139 113.278 28.6539 111.143 28.6539C107.51 28.6539 105.613 24.587 104.91 22.2175L103.289 22.655C103.52 24.811 103.902 26.9459 104.43 29.0459C105.176 29.3749 105.946 29.6514 106.726 29.8824C107.934 30.2254 109.183 30.3969 110.44 30.3899C116.004 30.3899 119.564 26.9984 119.564 22.5745" fill="#0082B8"/>
<path d="M129.048 28.3929C127.589 28.1514 127.393 27.9939 127.393 25.7224V15.9295C128.065 15.205 129.02 14.806 130.011 14.8445C131.435 14.8445 132.583 15.8315 132.583 18.6735V25.7434C132.583 27.9589 132.422 28.1549 130.802 28.4139V29.8734H149.499V28.4139C147.325 28.1724 147.122 27.9344 147.122 25.4039V11.7995C144.812 12.4855 142.446 12.972 140.052 13.259V14.568C142.03 14.925 142.187 15.0055 142.187 17.445V25.3514C142.187 27.9589 141.848 28.1199 139.758 28.3614C137.854 28.0849 137.567 28.0044 137.567 25.6384V18.2325C137.567 14.127 135.786 11.831 132.422 11.831C130.455 11.831 128.674 13.0945 127.456 14.323V2.60156C125.128 3.20006 122.769 3.65855 120.386 3.98055V5.31754C122.398 5.55904 122.514 5.55904 122.514 7.84453V25.6489C122.514 28.0184 122.318 28.1689 120.109 28.3719V29.8314H129.111L129.048 28.3894V28.3929Z" fill="#0082B8"/>
<path d="M158.19 13.4997C159.614 13.4997 160.398 15.5927 160.398 17.4897C160.398 18.2002 160.202 18.3787 159.509 18.3787L155.12 18.5047C155.316 15.6102 156.741 13.4822 158.12 13.4822M158.12 30.3102C160.895 30.1457 163.408 28.6231 164.84 26.2432L164.003 25.1022C162.929 26.1837 161.459 26.7787 159.936 26.7577C157.266 26.7577 155.085 24.4618 154.959 20.4718C158.599 20.3213 163.3 19.9537 163.863 19.8487C164.85 19.6877 165.011 19.1733 165.011 18.2633C165.011 14.9873 162.393 11.7812 158.841 11.7812C156.604 11.8897 154.504 12.9012 153.027 14.5847C151.239 16.5517 150.252 19.1208 150.266 21.7773C150.266 26.3517 153.104 30.3067 158.162 30.3067" fill="#0082B8"/>
<path d="M175.14 28.3929C172.932 28.1514 172.729 27.9939 172.729 25.4984V2.60156C170.394 3.24206 168.011 3.70055 165.606 3.98055V5.24404C167.741 5.52054 167.822 5.59054 167.822 7.91452V25.4879C167.822 27.8644 167.661 28.1059 165.445 28.3824V29.8419H175.14V28.3894V28.3929Z" fill="#0082B8"/>
<path d="M184.855 27.2449C183.2 27.2449 180.669 25.2674 180.669 20.5669C180.669 14.5225 183.431 13.6125 184.229 13.6125C185.216 13.6125 186.115 14.288 186.668 15.6705V26.6919C186.143 27.1014 185.482 27.2974 184.817 27.2449M194.102 28.8304V27.4059L193 27.2799C191.806 27.1644 191.61 26.9334 191.61 24.9559V2.60156C189.223 3.27706 186.78 3.73905 184.309 3.98055V5.32454C186.563 5.52054 186.714 5.71654 186.714 7.89003V11.9955C181.548 10.907 176.476 14.211 175.384 19.3804C175.227 20.1224 175.16 20.8784 175.185 21.6379C175.185 27.5214 179.378 30.3284 182.608 30.3284C183.371 30.3354 184.113 30.0694 184.701 29.5794L186.714 28.2354V30.3284C189.153 29.6459 191.635 29.1489 194.148 28.8339" fill="#0082B8"/>
</g>
<line x1="46" y1="34.75" x2="195" y2="34.75" stroke="#097BB7" stroke-width="0.5"/>
<path d="M112.355 40.7273C112.287 40.0391 111.983 39.4917 111.444 39.0852C110.904 38.6787 110.226 38.4755 109.409 38.4755C108.834 38.4755 108.326 38.5741 107.888 38.7713C107.453 38.9685 107.111 39.2422 106.862 39.5923C106.616 39.9384 106.493 40.3329 106.493 40.7756C106.493 41.1016 106.564 41.3873 106.705 41.6328C106.845 41.8783 107.035 42.0896 107.272 42.2667C107.513 42.4397 107.779 42.5887 108.069 42.7134C108.363 42.8382 108.658 42.9428 108.956 43.0273L110.26 43.4016C110.655 43.5103 111.049 43.6491 111.444 43.8182C111.838 43.9872 112.198 44.2005 112.524 44.4581C112.854 44.7116 113.118 45.0236 113.315 45.3938C113.516 45.7601 113.617 46.2008 113.617 46.7159C113.617 47.3759 113.446 47.9696 113.104 48.4968C112.762 49.024 112.271 49.4426 111.631 49.7525C110.991 50.0584 110.224 50.2113 109.331 50.2113C108.489 50.2113 107.759 50.0724 107.139 49.7947C106.519 49.513 106.032 49.1246 105.678 48.6296C105.324 48.1346 105.125 47.5611 105.081 46.9091H106.24C106.28 47.3961 106.441 47.8086 106.723 48.1467C107.004 48.4847 107.371 48.7423 107.821 48.9194C108.272 49.0924 108.775 49.179 109.331 49.179C109.946 49.179 110.494 49.0763 110.973 48.8711C111.456 48.6618 111.834 48.372 112.108 48.0018C112.385 47.6275 112.524 47.1928 112.524 46.6978C112.524 46.2792 112.415 45.9291 112.198 45.6474C111.981 45.3616 111.677 45.1222 111.287 44.929C110.9 44.7358 110.451 44.5647 109.94 44.4158L108.461 43.9812C107.491 43.6914 106.739 43.291 106.203 42.7798C105.668 42.2687 105.401 41.6167 105.401 40.8239C105.401 40.1598 105.578 39.5762 105.932 39.0732C106.29 38.5661 106.773 38.1716 107.381 37.8899C107.992 37.6042 108.679 37.4613 109.439 37.4613C110.208 37.4613 110.888 37.6022 111.48 37.8839C112.071 38.1656 112.54 38.554 112.886 39.049C113.237 39.54 113.424 40.0994 113.448 40.7273H112.355ZM126.469 43.8182C126.469 45.1061 126.24 46.2269 125.781 47.1808C125.322 48.1306 124.691 48.8671 123.886 49.3903C123.085 49.9094 122.163 50.169 121.121 50.169C120.078 50.169 119.155 49.9094 118.35 49.3903C117.549 48.8671 116.919 48.1306 116.46 47.1808C116.005 46.2269 115.778 45.1061 115.778 43.8182C115.778 42.5303 116.005 41.4115 116.46 40.4616C116.919 39.5078 117.551 38.7713 118.356 38.2521C119.161 37.7289 120.082 37.4673 121.121 37.4673C122.163 37.4673 123.085 37.7289 123.886 38.2521C124.691 38.7713 125.322 39.5078 125.781 40.4616C126.24 41.4115 126.469 42.5303 126.469 43.8182ZM125.371 43.8182C125.371 42.7114 125.186 41.7636 124.815 40.9748C124.445 40.1819 123.94 39.5762 123.3 39.1577C122.66 38.7391 121.934 38.5298 121.121 38.5298C120.312 38.5298 119.587 38.7391 118.947 39.1577C118.308 39.5762 117.8 40.1799 117.426 40.9688C117.056 41.7576 116.871 42.7074 116.871 43.8182C116.871 44.925 117.056 45.8728 117.426 46.6616C117.796 47.4504 118.301 48.0561 118.941 48.4787C119.581 48.8973 120.308 49.1065 121.121 49.1065C121.934 49.1065 122.66 48.8973 123.3 48.4787C123.944 48.0601 124.451 47.4564 124.821 46.6676C125.192 45.8748 125.375 44.925 125.371 43.8182ZM129.2 50V37.6364H136.353V38.6506H130.329V43.305H135.792V44.3192H130.329V50H129.2ZM138.412 38.6506V37.6364H147.377V38.6506H143.459V50H142.33V38.6506H138.412ZM152.068 50L148.681 37.6364H149.828L152.629 48.2674H152.726L155.527 37.6364H156.831L159.632 48.2674H159.728L162.53 37.6364H163.683L160.296 50H159.089L156.221 39.5138H156.142L153.275 50H152.068ZM164.778 50H163.595L168.093 37.6364H169.3L173.797 50H172.614L168.739 39.1033H168.654L164.778 50ZM165.63 45.261H171.763V46.2752H165.63V45.261ZM175.916 50V37.6364H179.907C180.784 37.6364 181.517 37.7953 182.104 38.1133C182.696 38.4272 183.141 38.8639 183.438 39.4233C183.74 39.9787 183.891 40.6166 183.891 41.337C183.891 42.0574 183.74 42.6933 183.438 43.2447C183.141 43.796 182.698 44.2267 182.11 44.5366C181.523 44.8465 180.794 45.0014 179.925 45.0014H176.526V43.9691H179.895C180.539 43.9691 181.074 43.8625 181.501 43.6491C181.931 43.4358 182.251 43.132 182.46 42.7376C182.674 42.3432 182.78 41.8763 182.78 41.337C182.78 40.7977 182.674 40.3268 182.46 39.9244C182.247 39.5179 181.925 39.204 181.495 38.9826C181.068 38.7612 180.529 38.6506 179.877 38.6506H177.045V50H175.916ZM181.368 44.4219L184.41 50H183.106L180.094 44.4219H181.368ZM186.641 50V37.6364H193.813V38.6506H187.77V43.305H193.433V44.3192H187.77V48.9858H193.934V50H186.641Z" fill="#0080B3"/>
<defs>
<clipPath id="clip0_670_202">
<rect width="196" height="32" fill="white"/>
</clipPath>
</defs>
</svg>
