<svg preserveAspectRatio="xMidYMid meet" data-bbox="0 0 1080.001 364.76" viewBox="0 0 1080.38 364.76" xmlns:xlink="http://www.w3.org/1999/xlink" xmlns="http://www.w3.org/2000/svg" data-type="ugc" role="presentation" aria-hidden="true" aria-label="">
    <g>
        <defs>
            <linearGradient gradientUnits="userSpaceOnUse" y2="84.46" x2="366.06" y1="84.46" x1="85.91" id="0568aa92-74e3-4b15-b5b2-5eb9727966c3_comp-kk2o699z">
                <stop stop-color="#ffffff" offset="0"></stop>
                <stop stop-color="#eaeaea" offset=".23"></stop>
                <stop stop-color="#c0c0c0" offset=".74"></stop>
                <stop stop-color="#b0b0b0" offset="1"></stop>
            </linearGradient>
            <linearGradient xlink:href="#0568aa92-74e3-4b15-b5b2-5eb9727966c3_comp-kk2o699z" y2="280.3" x2="279.85" y1="280.3" x1="0" id="51236fe3-1f1c-4bbc-9ce1-6fba1cb8ff23_comp-kk2o699z"></linearGradient>
        </defs>
        <g>
            <g>
                <path d="M417.51 127.67a4.35 4.35 0 0 1 4.35-4.35h68.43v5.14a4.34 4.34 0 0 1-4.35 4.34h-68.43v-5.13zM449.16 242v-83.41a4.34 4.34 0 0 1 4.34-4.34h5.14v83.44a4.34 4.34 0 0 1-4.34 4.31z" fill="#d8d8d8" stroke="#d8d8d8" stroke-miterlimit="10" stroke-width=".76"></path>
                <path d="M527.38 127.45a4.34 4.34 0 0 1 4.34-4.34h69.61v5a4.34 4.34 0 0 1-4.34 4.34h-69.61zm68 53.77a4.34 4.34 0 0 1-4.35 4.34h-63.65v-5a4.34 4.34 0 0 1 4.34-4.35h63.64zm-68 56.47v-5H597a4.34 4.34 0 0 1 4.34 4.34v5h-69.62a4.34 4.34 0 0 1-4.34-4.34z" fill="#d8d8d8" stroke="#d8d8d8" stroke-miterlimit="10" stroke-width=".76"></path>
                <path d="M703.85 163.4a30.59 30.59 0 0 0-30.55-31.3h-23.61a4.35 4.35 0 0 1-4.35-4.35v-4.33h28a39.29 39.29 0 0 1 39.2 38.58c.37 22-18 39.93-39.94 39.93h-6.28l40.2 40.07H696a4.33 4.33 0 0 1-3.07-1.27l-40.19-40.12a4.34 4.34 0 0 1 3.07-7.41h16.88c16.72.03 30.77-13.11 31.16-29.8z" fill="#d8d8d8" stroke="#d8d8d8" stroke-miterlimit="10" stroke-width=".76"></path>
                <path d="M831.65 214.58c-2.58 14.73-18 29.63-42.58 29.63-16.94 0-32.35-8-39.25-20.31l5.23-2.92a4.32 4.32 0 0 1 5.51 1.05c5.88 7.5 16.65 12.19 28.51 12.19 19 0 30.87-10.76 32.72-21.36 1.77-10.11-5.09-19-18.38-23.82-5.73-2.08-11.76-3.11-17.53-5-2-.66-4-1.42-5.9-2.25a59.48 59.48 0 0 1-15.38-9.46c-13.6-11.92-15.6-32.33.07-43.52 10.16-7.28 24.16-10 37.47-7.19 11.53 2.41 21.13 8.75 26.3 17.4l-5.17 3.09a4.32 4.32 0 0 1-5.5-.9c-4-4.76-10.3-8.28-17.67-9.81-10.61-2.2-21.68-.15-29.62 5.53a18.65 18.65 0 0 0-7.87 14.72c0 6.09 4.6 10.83 9.2 14.21a61.09 61.09 0 0 0 21.93 10 133.26 133.26 0 0 1 13.07 3.75c21.46 7.78 26.9 23.16 24.84 34.97z" fill="#d8d8d8" stroke="#d8d8d8" stroke-miterlimit="10" stroke-width=".76"></path>
                <path d="M1079.6 214.58c-2.59 14.73-18 29.63-42.58 29.63-16.94 0-32.35-8-39.25-20.31l5.23-2.9a4.33 4.33 0 0 1 5.51 1.05c5.88 7.5 16.65 12.19 28.51 12.19 19 0 30.87-10.76 32.72-21.36 1.77-10.11-5.1-19-18.38-23.82-5.74-2.08-11.76-3.11-17.54-5-2-.66-4-1.42-5.89-2.25a59.71 59.71 0 0 1-15.39-9.46c-13.61-11.91-15.62-32.28.08-43.51 10.16-7.28 24.16-10 37.46-7.19 11.54 2.41 21.14 8.75 26.31 17.4l-5.17 3.09a4.32 4.32 0 0 1-5.5-.9c-4-4.76-10.3-8.28-17.68-9.81-10.6-2.2-21.68-.15-29.61 5.53a18.63 18.63 0 0 0-7.87 14.72c0 6.09 4.6 10.83 9.2 14.21a61 61 0 0 0 21.93 10 134.06 134.06 0 0 1 13.07 3.75c21.46 7.75 26.89 23.13 24.84 34.94z" fill="#d8d8d8" stroke="#d8d8d8" stroke-miterlimit="10" stroke-width=".76"></path>
                <path d="M950.88 124.31a4.35 4.35 0 0 1 4.35-4.35h5.21v78.5a45.12 45.12 0 0 1-45.94 45.06c-24.68-.47-44.2-21.14-44.2-45.82V120h5.21a4.35 4.35 0 0 1 4.35 4.35v73.48c0 19.39 15.27 35.71 34.65 36.17a35.55 35.55 0 0 0 36.37-35.5z" fill="#d8d8d8" stroke="#d8d8d8" stroke-miterlimit="10" stroke-width=".76"></path>
                <path fill="url(#0568aa92-74e3-4b15-b5b2-5eb9727966c3_comp-kk2o699z)" d="M366.06 0L196.98 168.92l-111.07-.02L366.06 0z"></path>
                <path fill="url(#51236fe3-1f1c-4bbc-9ce1-6fba1cb8ff23_comp-kk2o699z)" d="M0 364.76l169.51-168.93h110.34L0 364.76z"></path>
            </g>
        </g>
    </g>
</svg>