<svg width="770" height="770" viewBox="0 0 770 770" fill="none" xmlns="http://www.w3.org/2000/svg">
<g clip-path="url(#clip0_358_172)">
<path d="M577.194 140.63C585.697 142.176 591.108 149.906 587.243 159.182L398.631 652.356H440.373C446.557 652.356 451.195 656.994 451.195 663.178C451.195 670.135 446.557 674 440.373 674H239.393C233.209 674 228.571 670.135 228.571 663.178C228.571 656.994 233.209 652.356 239.393 652.356H272.632L459.698 163.82H240.166V234.936C240.166 241.893 235.528 245.758 229.344 245.758C223.16 245.758 218.522 241.893 218.522 234.936V152.225C218.522 146.041 223.933 140.63 230.117 140.63H577.194Z" fill="white"/>
</g>
<defs>
<clipPath id="clip0_358_172">
<rect width="770" height="770" fill="white"/>
</clipPath>
</defs>
</svg>
